PathFileType	4	(X/Y/Z)	RKneeTrial12.trc
DataRate	CameraRate	NumFrames	NumMarkers	Units	OrigDataRate	OrigDataStartFrame	OrigNumFrames
100	100	5	33	m	100	104	851
Frame#	Time	L_Toe			Neck			R_Toe			R_Shoulder			L_Wrist			L_Shank_Lateral			L_Elbow			R_Shank_Lateral			L_Shoulder			R_Midfoot_Lateral			L_Midfoot_Superior			R_Midfoot_Superior			R_Heel			R_Thigh_Lateral			L_Heel			R_Patella			L_Midfoot_Lateral			R_Elbow			R_Wrist			R_Shank_Inferior			Sternum			R_Thigh_Inferior			L_Shank_Inferior			R_Shank_Superior			L_Thigh_Superior			R_Thigh_Superior			R_Asis			L_Asis			L_Shank_Superior			L_Patella			Sacral			L_Thigh_Lateral			L_Thigh_Inferior
		X1	Y1	Z1	X2	Y2	Z2	X3	Y3	Z3	X4	Y4	Z4	X5	Y5	Z5	X6	Y6	Z6	X7	Y7	Z7	X8	Y8	Z8	X9	Y9	Z9	X10	Y10	Z10	X11	Y11	Z11	X12	Y12	Z12	X13	Y13	Z13	X14	Y14	Z14	X15	Y15	Z15	X16	Y16	Z16	X17	Y17	Z17	X18	Y18	Z18	X19	Y19	Z19	X20	Y20	Z20	X21	Y21	Z21	X22	Y22	Z22	X23	Y23	Z23	X24	Y24	Z24	X25	Y25	Z25	X26	Y26	Z26	X27	Y27	Z27	X28	Y28	Z28	X29	Y29	Z29	X30	Y30	Z30	X31	Y31	Z31	X32	Y32	Z32	X33	Y33	Z33

104	   1.030	    0.65048741900000	    0.04434291100000	    0.36692792600000	    0.46974981100000	    1.48413335800000	    0.33416646400000	    0.57062558500000	    0.05140700300000	    0.62722322000000	    0.51025411500000	    1.46224236300000	    0.48159284800000	    0.51422653400000	    1.07694711100000	   -0.06899882300000	    0.41246253100000	    0.32280679400000	    0.29482486000000	    0.32597920200000	    1.14741215300000	    0.09346248600000	    0.46525091400000	    0.40634296000000	    0.64780090100000	    0.49400799400000	    1.44060214000000	    0.18989529800000	    0.36183413100000	    0.09486366900000	    0.66279005700000	    0.53277281600000	    0.09094467700000	    0.38760951800000	    0.46190534900000	    0.12734801000000	    0.61285658300000	    0.28051303200000	    0.11502469500000	    0.59945184100000	    0.54045263600000	    0.69007421900000	    0.61042624500000	    0.36390019800000	    0.03303363300000	    0.43787834600000	    0.62659162100000	    0.50283718100000	    0.55830580100000	    0.43567040200000	    0.02744260500000	    0.36530315300000	    0.51778669500000	    1.15923404000000	    0.66073370600000	    0.65732150000000	    1.23190993500000	    0.46363146700000	    0.46827551400000	    0.25441886700000	    0.60605060400000	    0.59813398800000	    1.37964877400000	    0.33981242400000	    0.62331329800000	    0.62823829900000	    0.54537258300000	    0.48968216200000	    0.23044421000000	    0.36038152100000	    0.55778897900000	    0.40486852200000	    0.59283424300000	    0.59102433000000	    0.72281600700000	    0.27022666900000	    0.61585922100000	    0.74252319900000	    0.54207913300000	    0.55870495000000	    0.99219374300000	    0.51262259600000	    0.56152963600000	    0.95214346100000	    0.25170800500000	    0.50705509900000	    0.38123738600000	    0.32185591500000	    0.55165829400000	    0.49062369400000	    0.32421842100000	    0.38983247900000	    1.00706555500000	    0.38208956400000	    0.48432839700000	    0.65253428800000	    0.24361441100000	    0.56609310800000	    0.60053987300000	    0.29564858900000
105	   1.040	    0.65049805100000	    0.04431243600000	    0.36693575300000	    0.46989994200000	    1.48415154800000	    0.33413231500000	    0.57586875700000	    0.05123029400000	    0.62575361300000	    0.51044437000000	    1.46230148100000	    0.48155167500000	    0.51432484300000	    1.07706668900000	   -0.06895775000000	    0.41237317200000	    0.32282746200000	    0.29491418400000	    0.32604771000000	    1.14740801600000	    0.09350072000000	    0.46677447000000	    0.40503226400000	    0.64800785000000	    0.49413605300000	    1.44057544100000	    0.18987171500000	    0.36688951400000	    0.09238533400000	    0.66281495800000	    0.53279295300000	    0.09092810900000	    0.38763026600000	    0.46630541500000	    0.12608862900000	    0.61234710400000	    0.28494384700000	    0.11188386700000	    0.60006616200000	    0.54038695400000	    0.69003075400000	    0.61032954600000	    0.36390136700000	    0.03302720200000	    0.43789892600000	    0.62634300700000	    0.50318792800000	    0.55783748400000	    0.43567401700000	    0.02744965900000	    0.36530631400000	    0.51795553000000	    1.15935390800000	    0.66079434900000	    0.65746030200000	    1.23193265100000	    0.46363782300000	    0.47120997100000	    0.25328123800000	    0.60582714100000	    0.59827934800000	    1.37964563400000	    0.33978381200000	    0.62297383900000	    0.62812792900000	    0.54504133700000	    0.48966979600000	    0.23045767400000	    0.36041753100000	    0.55893559100000	    0.40477298500000	    0.59242238000000	    0.59091617300000	    0.72281879300000	    0.27032476100000	    0.61572732000000	    0.74243295900000	    0.54185614100000	    0.55878525200000	    0.99222165100000	    0.51267375500000	    0.56145850600000	    0.95213048700000	    0.25177760100000	    0.50700534400000	    0.38125302300000	    0.32191684400000	    0.55159348600000	    0.49065832200000	    0.32426736200000	    0.38984067300000	    1.00711793700000	    0.38225670900000	    0.48420086800000	    0.65254929100000	    0.24370007600000	    0.56600463100000	    0.60055254500000	    0.29573659700000
106	   1.050	    0.65051003300000	    0.04427605200000	    0.36694463800000	    0.47005398700000	    1.48416633700000	    0.33411690500000	    0.58103372300000	    0.05111631900000	    0.62423866700000	    0.51064537800000	    1.46235134700000	    0.48152676100000	    0.51441369700000	    1.07720425300000	   -0.06891085600000	    0.41230334300000	    0.32284315900000	    0.29500057600000	    0.32610985900000	    1.14740666100000	    0.09355270900000	    0.46833891500000	    0.40376393100000	    0.64819752000000	    0.49425911000000	    1.44055028400000	    0.18986420200000	    0.37191489000000	    0.09001113600000	    0.66282252000000	    0.53281453300000	    0.09090814100000	    0.38765353900000	    0.47065302400000	    0.12490200500000	    0.61181259000000	    0.28934405100000	    0.10885616700000	    0.60067674300000	    0.54035368100000	    0.68997722400000	    0.61021434300000	    0.36390391900000	    0.03302114300000	    0.43791958700000	    0.62612225000000	    0.50354010300000	    0.55733156200000	    0.43567743900000	    0.02745689500000	    0.36530955500000	    0.51814088400000	    1.15945746500000	    0.66085899400000	    0.65760621200000	    1.23194397000000	    0.46364362500000	    0.47412987500000	    0.25219736700000	    0.60558131200000	    0.59842727000000	    1.37963720200000	    0.33976379700000	    0.62266140200000	    0.62801218000000	    0.54467888400000	    0.48966848600000	    0.23046824800000	    0.36046069700000	    0.56009390100000	    0.40468627700000	    0.59198382000000	    0.59082494400000	    0.72282182700000	    0.27042603600000	    0.61562016500000	    0.74233853000000	    0.54160754600000	    0.55887401800000	    0.99224320000000	    0.51272478200000	    0.56139152100000	    0.95211721500000	    0.25184561300000	    0.50697244500000	    0.38126524500000	    0.32198525800000	    0.55154317000000	    0.49068841500000	    0.32432788500000	    0.38985226100000	    1.00716516800000	    0.38242730200000	    0.48409489200000	    0.65256016600000	    0.24378758000000	    0.56593425900000	    0.60056417800000	    0.29583099600000
107	   1.060	    0.65052315600000	    0.04423432300000	    0.36695431800000	    0.47021038000000	    1.48417751600000	    0.33412073800000	    0.58611091900000	    0.05106430900000	    0.62268635900000	    0.51085558800000	    1.46239154100000	    0.48151877700000	    0.51449183500000	    1.07735872100000	   -0.06886061800000	    0.41225311100000	    0.32285389700000	    0.29508334900000	    0.32616530100000	    1.14740836900000	    0.09361704500000	    0.46993636700000	    0.40254046600000	    0.64836725100000	    0.49437587400000	    1.44052702400000	    0.18987317500000	    0.37689710600000	    0.08774290800000	    0.66280906700000	    0.53283706800000	    0.09088503300000	    0.38767892400000	    0.47493836500000	    0.12378813500000	    0.61125352900000	    0.29370303900000	    0.10594343500000	    0.60127538000000	    0.54035218600000	    0.68991430200000	    0.61008321500000	    0.36390789900000	    0.03301512600000	    0.43794035100000	    0.62593169800000	    0.50389215600000	    0.55679363600000	    0.43568064700000	    0.02746419600000	    0.36531282800000	    0.51834250700000	    1.15954352600000	    0.66092710300000	    0.65775905200000	    1.23194409200000	    0.46364879400000	    0.47702827700000	    0.25116795700000	    0.60531328600000	    0.59857673000000	    1.37962392800000	    0.33975269800000	    0.62237906600000	    0.62789219100000	    0.54429235800000	    0.48967780300000	    0.23047595400000	    0.36051011500000	    0.56126112300000	    0.40460865900000	    0.59152190000000	    0.59075212900000	    0.72282473000000	    0.27052786200000	    0.61553946100000	    0.74224092800000	    0.54133981600000	    0.55897113700000	    0.99225776800000	    0.51277592200000	    0.56133065500000	    0.95210372900000	    0.25191196100000	    0.50695605900000	    0.38127405600000	    0.32206017000000	    0.55150729200000	    0.49071360900000	    0.32439915000000	    0.38986821700000	    1.00720707200000	    0.38259925400000	    0.48401141500000	    0.65256700800000	    0.24387626200000	    0.56588270200000	    0.60057419100000	    0.29592962800000
108	   1.070	    0.65053722100000	    0.04418780400000	    0.36696453300000	    0.47036770200000	    1.48418499900000	    0.33414411700000	    0.59109166900000	    0.05107276700000	    0.62110648800000	    0.51107351100000	    1.46242187000000	    0.48152817000000	    0.51455816700000	    1.07752867500000	   -0.06880925800000	    0.41222197200000	    0.32285983000000	    0.29516212400000	    0.32621377200000	    1.14741348200000	    0.09369236900000	    0.47155783400000	    0.40136381100000	    0.64851430100000	    0.49448533900000	    1.44050601800000	    0.18989885400000	    0.38182313600000	    0.08558158200000	    0.66277084400000	    0.53286011600000	    0.09085904500000	    0.38770603200000	    0.47915262700000	    0.12274633700000	    0.61067101500000	    0.29801092900000	    0.10314654500000	    0.60185295300000	    0.54038154300000	    0.68984288400000	    0.60993874800000	    0.36391337700000	    0.03300892400000	    0.43796117600000	    0.62577307800000	    0.50424267900000	    0.55622978800000	    0.43568364300000	    0.02747147800000	    0.36531608800000	    0.51855996400000	    1.15961133000000	    0.66099823100000	    0.65791861500000	    1.23193345800000	    0.46365338600000	    0.47989841800000	    0.25019326400000	    0.60502354900000	    0.59872681600000	    1.37960637500000	    0.33975077800000	    0.62212954300000	    0.62776932100000	    0.54388884700000	    0.48969712500000	    0.23048089200000	    0.36056483400000	    0.56243410600000	    0.40454041700000	    0.59104046200000	    0.59069877100000	    0.72282708800000	    0.27062777400000	    0.61548650100000	    0.74214129000000	    0.54105929500000	    0.55907653200000	    0.99226498300000	    0.51282740600000	    0.56127780600000	    0.95209011600000	    0.25197662300000	    0.50695547500000	    0.38127956900000	    0.32214062700000	    0.55148535500000	    0.49073366600000	    0.32448023500000	    0.38988952000000	    1.00724358300000	    0.38277056600000	    0.48395077600000	    0.65256998700000	    0.24396553900000	    0.56585015200000	    0.60058198800000	    0.29603040600000
